<svg width="16" height="16" viewBox="0 0 16 16" fill="none" xmlns="http://www.w3.org/2000/svg">
<path d="M13.3334 2.33301H2.66675C2.13631 2.33301 1.62761 2.54372 1.25253 2.91879C0.877462 3.29387 0.666748 3.80257 0.666748 4.33301V12.9997C0.666748 13.1765 0.736986 13.3461 0.86201 13.4711C0.987034 13.5961 1.1566 13.6663 1.33341 13.6663H4.00008C4.10989 13.6658 4.21785 13.6381 4.31438 13.5858C4.41091 13.5334 4.49302 13.458 4.55341 13.3663L5.69341 11.6663H10.3067L11.4467 13.3663C11.5071 13.458 11.5892 13.5334 11.6858 13.5858C11.7823 13.6381 11.8903 13.6658 12.0001 13.6663H14.6667C14.8436 13.6663 15.0131 13.5961 15.1382 13.4711C15.2632 13.3461 15.3334 13.1765 15.3334 12.9997V4.33301C15.3334 3.80257 15.1227 3.29387 14.7476 2.91879C14.3726 2.54372 13.8638 2.33301 13.3334 2.33301ZM14.0001 12.333H12.3601L11.2201 10.6663C11.1637 10.5684 11.0833 10.4865 10.9865 10.4282C10.8897 10.3699 10.7797 10.3371 10.6667 10.333H5.33341C5.22361 10.3336 5.11565 10.3613 5.01911 10.4136C4.92258 10.4659 4.84047 10.5413 4.78008 10.633L3.64008 12.333H2.00008V8.99967H14.0001V12.333ZM4.66675 7.66634V6.99967C4.66675 6.82286 4.73699 6.65329 4.86201 6.52827C4.98703 6.40325 5.1566 6.33301 5.33341 6.33301H6.66675C6.84356 6.33301 7.01313 6.40325 7.13815 6.52827C7.26318 6.65329 7.33341 6.82286 7.33341 6.99967V7.66634H4.66675ZM8.66675 7.66634V6.99967C8.66675 6.82286 8.73699 6.65329 8.86201 6.52827C8.98703 6.40325 9.1566 6.33301 9.33341 6.33301H10.6667C10.8436 6.33301 11.0131 6.40325 11.1382 6.52827C11.2632 6.65329 11.3334 6.82286 11.3334 6.99967V7.66634H8.66675ZM14.0001 7.66634H12.6667V6.99967C12.6667 6.46924 12.456 5.96053 12.081 5.58546C11.7059 5.21039 11.1972 4.99967 10.6667 4.99967H9.33341C8.84004 5.00261 8.36517 5.18781 8.00008 5.51967C7.63499 5.18781 7.16012 5.00261 6.66675 4.99967H5.33341C4.80298 4.99967 4.29427 5.21039 3.9192 5.58546C3.54413 5.96053 3.33341 6.46924 3.33341 6.99967V7.66634H2.00008V4.33301C2.00008 4.1562 2.07032 3.98663 2.19534 3.8616C2.32037 3.73658 2.48994 3.66634 2.66675 3.66634H13.3334C13.5102 3.66634 13.6798 3.73658 13.8048 3.8616C13.9298 3.98663 14.0001 4.1562 14.0001 4.33301V7.66634Z" fill="#5D5D5D"/>
</svg>
