<svg width="12" height="14" viewBox="0 0 12 14" fill="none" xmlns="http://www.w3.org/2000/svg">
<path d="M10.0001 1.98693C8.93925 0.926067 7.50041 0.330078 6.00012 0.330078C4.49982 0.330078 3.06098 0.926067 2.00012 1.98693C0.93925 3.0478 0.343262 4.48664 0.343262 5.98693C0.343262 7.48722 0.93925 8.92607 2.00012 9.98693L5.51345 13.5069C5.57542 13.5694 5.64916 13.619 5.7304 13.6529C5.81164 13.6867 5.89877 13.7041 5.98678 13.7041C6.07479 13.7041 6.16193 13.6867 6.24317 13.6529C6.32441 13.619 6.39814 13.5694 6.46011 13.5069L10.0001 9.9536C11.0565 8.89715 11.65 7.4643 11.65 5.97027C11.65 4.47623 11.0565 3.04338 10.0001 1.98693ZM9.04678 9.00027L6.00012 12.0603L2.95345 9.00027C2.35155 8.39781 1.94177 7.63043 1.77591 6.79513C1.61006 5.95982 1.69557 5.0941 2.02165 4.30739C2.34773 3.52068 2.89973 2.8483 3.60787 2.37525C4.31601 1.9022 5.14851 1.64972 6.00012 1.64972C6.85173 1.64972 7.68422 1.9022 8.39236 2.37525C9.1005 2.8483 9.6525 3.52068 9.97858 4.30739C10.3047 5.0941 10.3902 5.95982 10.2243 6.79513C10.0585 7.63043 9.64869 8.39781 9.04678 9.00027ZM4.00012 3.94027C3.46193 4.48011 3.15971 5.21131 3.15971 5.9736C3.15971 6.73589 3.46193 7.46708 4.00012 8.00693C4.39996 8.40746 4.90917 8.68099 5.46388 8.7932C6.01859 8.90542 6.59408 8.85132 7.11816 8.6377C7.64224 8.42408 8.09157 8.06045 8.40977 7.59243C8.72797 7.12441 8.90087 6.57285 8.90678 6.00693C8.90979 5.62907 8.837 5.25444 8.69272 4.90519C8.54844 4.55594 8.3356 4.23917 8.06678 3.9736C7.80256 3.70332 7.4875 3.48796 7.13973 3.33991C6.79196 3.19186 6.41834 3.11405 6.04038 3.11095C5.66242 3.10785 5.28758 3.17953 4.93743 3.32186C4.58728 3.46419 4.26873 3.67435 4.00012 3.94027ZM7.12678 7.06027C6.87414 7.31676 6.54026 7.47754 6.1822 7.5151C5.82414 7.55267 5.46416 7.46469 5.16379 7.26622C4.86342 7.06774 4.64131 6.77109 4.53545 6.42699C4.42959 6.08288 4.44655 5.71269 4.58342 5.3797C4.72029 5.04671 4.96858 4.77161 5.28584 4.60142C5.6031 4.43124 5.96962 4.37654 6.32274 4.44668C6.67586 4.51682 6.99366 4.70744 7.22179 4.98595C7.44992 5.26447 7.57423 5.61358 7.57345 5.9736C7.56375 6.38511 7.39111 6.77595 7.09345 7.06027H7.12678Z" fill="#858685"/>
</svg>
