<svg width="15" height="15" viewBox="0 0 16 16" fill="none" xmlns="http://www.w3.org/2000/svg">
<g clip-path="url(#clip0_5027_1809)">
<path d="M11.4812 6.25551C11.4846 6.44981 11.4125 6.63785 11.28 6.78003L7.78 10.28C7.63937 10.4205 7.44875 10.4994 7.25 10.4994C7.05125 10.4994 6.86062 10.4205 6.72 10.28L4.72 8.28003C4.58752 8.13785 4.5154 7.94981 4.51882 7.75551C4.52225 7.56121 4.60096 7.37582 4.73838 7.23841C4.87579 7.10099 5.06118 7.02228 5.25548 7.01885C5.44978 7.01543 5.63782 7.08755 5.78 7.22003L7.25 8.69003L10.22 5.72003C10.3622 5.58755 10.5502 5.51543 10.7445 5.51885C10.9388 5.52228 11.1242 5.60099 11.2616 5.73841C11.399 5.87582 11.4777 6.06121 11.4812 6.25551Z" fill="#2F2F2F"/>
<path fill-rule="evenodd" clip-rule="evenodd" d="M13.6569 13.6569C15.1571 12.1566 16 10.1217 16 8C16 5.87827 15.1571 3.84344 13.6569 2.34315C12.1566 0.842855 10.1217 0 8 0C5.87827 0 3.84344 0.842855 2.34315 2.34315C0.842855 3.84344 0 5.87827 0 8C0 10.1217 0.842855 12.1566 2.34315 13.6569C3.84344 15.1571 5.87827 16 8 16C10.1217 16 12.1566 15.1571 13.6569 13.6569ZM12.5962 12.5962C13.8152 11.3772 14.5 9.72391 14.5 8C14.5 6.27609 13.8152 4.62279 12.5962 3.40381C11.3772 2.18482 9.72391 1.5 8 1.5C6.27609 1.5 4.62279 2.18482 3.40381 3.40381C2.18482 4.62279 1.5 6.27609 1.5 8C1.5 9.72391 2.18482 11.3772 3.40381 12.5962C4.62279 13.8152 6.27609 14.5 8 14.5C9.72391 14.5 11.3772 13.8152 12.5962 12.5962Z" fill="#2F2F2F"/>
</g>
<defs>
<clipPath id="clip0_5027_1809">
<rect width="16" height="16" fill="white"/>
</clipPath>
</defs>
</svg>
